<svg width="50" height="21" viewBox="0 0 50 21" fill="none" xmlns="http://www.w3.org/2000/svg">
<path d="M20.748 7.51611H24.0815V9.18316H20.748V7.51611Z" fill="#1B1918"/>
<path d="M49.2023 5.02475L43.5413 4.21632C42.509 3.58219 41.4378 3.01452 40.3333 2.51637C36.6859 0.864238 32.7271 0.0117218 28.7226 0.0161303H27.7392C23.0134 0.0195213 18.3632 1.20538 14.2125 3.46553L11.3556 5.02407C8.01127 5.06171 4.73142 5.95119 1.82595 7.60739C0.645178 8.28459 -0.0839029 9.54099 -0.0859375 10.9018V15.8504C-0.0859375 16.3109 0.287081 16.6839 0.747589 16.6839H3.5459C4.45607 19.2805 7.29881 20.6478 9.89535 19.7376C11.3247 19.2368 12.4482 18.1129 12.949 16.6839H35.2148C36.125 19.2805 38.9677 20.6478 41.5643 19.7376C42.9933 19.2368 44.1171 18.1129 44.6179 16.6839H44.917C45.0232 16.6839 45.1283 16.6639 45.227 16.6246L47.9263 15.5415C49.1321 15.064 49.9219 13.8968 49.9175 12.6004V5.8498C49.9175 5.43541 49.6126 5.08375 49.2023 5.02475ZM11.5139 15.6839C11.1453 17.4876 9.38432 18.6511 7.58061 18.2825C5.77655 17.9139 4.61308 16.1529 4.98169 14.3489C5.35063 12.5451 7.11162 11.3817 8.91533 11.7503C10.4674 12.0673 11.5817 13.4329 11.5814 15.0172C11.5814 15.241 11.5587 15.4645 11.5139 15.6839ZM26.5825 15.0172H13.2481C13.2481 12.2555 11.0097 10.0168 8.24797 10.0168C5.48628 10.0168 3.24749 12.2555 3.24749 15.0172H1.58078V10.9018C1.58179 10.1385 1.99076 9.43349 2.65337 9.05437C5.37302 7.50159 8.45008 6.68434 11.5814 6.68333H26.5825V15.0172ZM26.5825 5.01661H14.8501L15.0108 4.92878C18.5738 2.99248 22.5315 1.89479 26.5825 1.71947V5.01661ZM28.2492 1.68284H28.7209C32.0794 1.67911 35.4074 2.31664 38.5269 3.5615L37.0718 5.01661H28.2492V1.68284ZM43.1828 15.6839C42.8142 17.4876 41.0532 18.6511 39.2492 18.2825C37.4455 17.9139 36.282 16.1529 36.6506 14.3489C37.0192 12.5451 38.7805 11.3817 40.5842 11.7503C42.1363 12.0673 43.2506 13.4329 43.2503 15.0172C43.2503 15.241 43.2276 15.4645 43.1828 15.6839ZM48.2508 7.51651H45.7506V9.18357H48.2508V12.6004C48.2528 13.2145 47.8785 13.7673 47.3074 13.9928L44.917 14.9528C44.917 14.8762 44.9072 14.8002 44.9021 14.7236C44.897 14.6469 44.8953 14.5571 44.8872 14.4736C44.8787 14.3902 44.8621 14.3068 44.8489 14.2237C44.8353 14.1403 44.8255 14.0569 44.8088 13.9813C44.7922 13.9053 44.7678 13.8212 44.7461 13.7419C44.7244 13.6628 44.7078 13.5828 44.6827 13.5052C44.6579 13.4278 44.6278 13.3536 44.5996 13.2776C44.5711 13.202 44.5454 13.1237 44.5162 13.0484C44.487 12.9734 44.4477 12.9053 44.4128 12.8344C44.3778 12.7635 44.3436 12.6859 44.3046 12.6143C44.2653 12.5428 44.2212 12.4817 44.1835 12.4153C44.1462 12.3485 44.1005 12.2725 44.053 12.2043C44.0052 12.1358 43.9611 12.0819 43.9153 12.0202C43.8695 11.9585 43.8176 11.8859 43.7644 11.8218C43.7112 11.7577 43.6613 11.7075 43.6094 11.655C43.5579 11.6028 43.5002 11.5319 43.4429 11.4736C43.3853 11.4152 43.3286 11.3691 43.2713 11.3176C43.2137 11.266 43.152 11.205 43.0886 11.1507C43.0255 11.0968 42.9611 11.0551 42.898 11.0076C42.8346 10.9602 42.7712 10.9093 42.7047 10.8649C42.6379 10.8208 42.5629 10.7818 42.4914 10.735C42.4195 10.6882 42.3612 10.6516 42.2937 10.616C42.2262 10.58 42.1421 10.5424 42.0655 10.5057C41.9888 10.4691 41.9288 10.4366 41.8579 10.4067C41.7871 10.3765 41.6911 10.345 41.608 10.3152C41.5246 10.285 41.4703 10.2616 41.3995 10.2392C41.3045 10.21 41.2072 10.189 41.1102 10.1649C41.0468 10.15 40.9861 10.13 40.922 10.1168C40.8196 10.0958 40.7145 10.0842 40.6104 10.069C40.5486 10.0608 40.4896 10.0473 40.4279 10.0415C40.2611 10.0249 40.0946 10.0157 39.9196 10.0157C37.1589 10.0184 34.9218 12.2555 34.9191 15.0162H28.2495V6.68299H37.4166C37.6377 6.68299 37.8497 6.59516 38.0057 6.43883L40.1668 4.2777C41.0739 4.70938 41.9559 5.19193 42.8088 5.72297C42.9071 5.78435 43.017 5.82471 43.132 5.84132L48.2508 6.5721V7.51651Z" fill="#1B1918"/>
</svg>
