<svg width="33" height="32" viewBox="0 0 33 32" fill="none" xmlns="http://www.w3.org/2000/svg">
<g clip-path="url(#clip0_501_1229)">
<path d="M32.4751 15.2375C32.4688 13.9624 31.4312 12.925 30.1499 12.925L22.2876 12.9438L22.2625 4.4375C22.2563 3.1626 21.2188 2.125 19.9438 2.125L12.6812 2.1438L8.6626 2.15625C8.48755 2.15625 8.31885 2.2251 8.19385 2.3501C8.06885 2.4751 8 2.6438 8 2.81885C8 3.18115 8.30005 3.4751 8.6626 3.4751L12.6812 3.4624L19.9375 3.44385C20.4875 3.44385 20.9312 3.88745 20.9312 4.4375L20.9563 13.7C20.9563 13.9688 20.8562 14.2188 20.6687 14.4062C20.4812 14.5938 20.2312 14.7 19.9624 14.7L10.625 14.7312C10.4312 14.7312 10.25 14.8125 10.125 14.9624L8 17.425L5.6001 14.9438C5.4751 14.8125 5.30005 14.7375 5.125 14.7437L2.8501 14.75C2.5874 14.75 2.3374 14.6499 2.1499 14.4624C1.9624 14.2749 1.8562 14.0249 1.8562 13.7563L1.82495 4.49365C1.82495 4.2251 1.92505 3.9751 2.11255 3.7876C2.30005 3.6001 2.55005 3.49365 2.81885 3.49365H3.6875C4.05005 3.49365 4.3501 3.19385 4.34375 2.8313C4.34375 2.65625 4.2749 2.48755 4.1438 2.36255C4.0188 2.23755 3.8501 2.1687 3.67505 2.17505H2.8125C2.19385 2.17505 1.61255 2.4187 1.17505 2.8562C0.737549 3.30005 0.5 3.88135 0.5 4.5L0.524902 13.7625C0.524902 14.3813 0.768799 14.9624 1.2124 15.3999C1.6499 15.8313 2.2312 16.075 2.84375 16.075H2.8562L4.8501 16.0688L7.55615 18.8687C7.68115 18.9937 7.8562 19.0688 8.03125 19.0688H8.05005C8.23755 19.0625 8.4126 18.9812 8.53125 18.8374L10.9312 16.05L13.3625 16.0437L13.3687 24.55C13.3687 25.1687 13.6125 25.75 14.05 26.1875C14.4875 26.625 15.0688 26.8625 15.6875 26.8625L22.1125 26.8438L24.5312 29.6187C24.6499 29.7563 24.8313 29.8438 25.0125 29.8438H25.0249C25.2063 29.8438 25.3813 29.7688 25.5 29.6375L28.1938 26.825L30.1875 26.8188C30.8062 26.8188 31.3875 26.575 31.825 26.1375C32.2625 25.7 32.5 25.1125 32.5 24.4937L32.4751 15.2375ZM31.175 24.5063C31.175 24.7749 31.075 25.0249 30.8875 25.2124C30.7 25.3999 30.45 25.5063 30.1812 25.5063L27.9062 25.5125C27.7251 25.5125 27.5562 25.5874 27.4312 25.7188L25.0437 28.2124L22.8999 25.7563C22.7749 25.6125 22.5938 25.5312 22.4062 25.5312H22.3999L15.6875 25.5437C15.425 25.5437 15.175 25.4438 14.9875 25.2563C14.8 25.0688 14.6938 24.8188 14.6938 24.5562L14.6875 16.0437L19.9812 16.0312C21.05 16.0312 21.9688 15.3062 22.2251 14.2749L30.1626 14.25C30.7124 14.25 31.1562 14.6938 31.1562 15.2437L31.175 24.5063Z" fill="#A40731"/>
<path d="M6.01059 3.4809L6.02304 3.48724C6.08554 3.50604 6.14804 3.51215 6.21054 3.51215C6.49813 3.51215 6.76059 3.31854 6.84188 3.0434C6.94809 2.69354 6.74813 2.32465 6.39804 2.21844L6.38559 2.2121C6.03573 2.1059 5.66684 2.30585 5.56063 2.65594C5.46688 3.00604 5.66073 3.37469 6.01059 3.4809Z" fill="#A40731"/>
<path d="M9.48169 12.9998C9.78809 12.9998 9.96924 12.8936 10.0317 12.6809L10.3691 11.4373H12.4629L12.8005 12.6809C12.8567 12.8936 13.0442 12.9998 13.3506 12.9998C13.5942 12.9998 13.8254 12.9309 14.0505 12.7998C14.2817 12.6685 14.3943 12.4998 14.3943 12.3186C14.3943 12.2935 14.3879 12.2561 14.3755 12.1997L12.4756 6.0061C12.4192 5.83105 12.2881 5.6936 12.0879 5.59351C11.8943 5.49976 11.6631 5.45605 11.4067 5.45605C11.1504 5.45605 10.9255 5.5061 10.7256 5.59351C10.5254 5.68726 10.3943 5.82471 10.3379 6.0061L8.45044 12.2061C8.43799 12.2622 8.43164 12.2998 8.43164 12.3247C8.43164 12.5122 8.55054 12.6748 8.77539 12.8059C9.00049 12.9309 9.23804 12.9998 9.48169 12.9998ZM10.7068 10.156L11.4067 7.58105L12.1067 10.156H10.7068Z" fill="#A40731"/>
<path d="M24.9307 19.125C24.9434 19.0063 24.9058 18.8999 24.8308 18.8062C24.7058 18.6687 24.4746 18.5813 24.2119 18.5813C23.9434 18.5813 23.7744 18.6938 23.6995 18.9312C23.2996 18.9312 22.9246 18.9688 22.5684 19.0437C22.5745 18.8438 22.5808 18.7063 22.5933 18.55C22.637 18.55 22.6807 18.5437 22.7307 18.5437C22.8369 18.5376 22.9619 18.5312 23.1245 18.5188C23.2808 18.5063 23.4683 18.4875 23.6746 18.4624C23.8994 18.4375 24.137 18.4126 24.3557 18.3999C25.1746 18.3188 25.437 18.1499 25.437 17.6938C25.437 17.3374 25.2246 17.0938 24.9246 17.0938C24.8682 17.0938 24.8057 17.0937 24.6746 17.1187L24.562 17.1375C23.8184 17.25 23.4746 17.3062 22.6995 17.3562C22.7246 17.1562 22.7432 16.9624 22.7432 16.8438C22.7432 16.5188 22.5308 16.3374 22.1433 16.3374C21.6494 16.3437 21.5059 16.5562 21.4307 17.4062H21.1558C21.062 17.4062 20.9246 17.4062 20.7932 17.3999C20.6621 17.3999 20.5308 17.3938 20.4434 17.3938C20.0244 17.3938 19.8557 17.5562 19.8557 17.9812C19.8557 18.6125 20.2183 18.6125 20.9495 18.6125C21.0808 18.6125 21.2246 18.6125 21.3682 18.6001V18.625C21.3557 18.9062 21.3433 19.1687 21.3369 19.4624C20.137 20.0688 19.4746 20.9875 19.4746 22.0562C19.4746 23 19.9683 23.5376 20.8369 23.5376C21.1621 23.5376 21.4307 23.4751 21.7808 23.325C21.887 23.4937 22.0059 23.5562 22.2183 23.5562C22.6494 23.5562 22.9683 23.3062 22.9683 22.9812C22.9683 22.875 22.9434 22.75 22.887 22.5874C23.4746 22.05 24.0869 21.175 24.5371 20.2375C24.9307 20.4126 25.1494 20.7625 25.1494 21.2251C25.1494 22.1062 24.4121 22.3999 23.9246 22.5938L23.9121 22.6001C23.6494 22.7 23.512 22.8999 23.512 23.175C23.512 23.5437 23.812 23.8501 24.1746 23.8501C24.6558 23.8501 26.437 23.1875 26.437 21.2063C26.4495 20.1875 25.8933 19.4312 24.9307 19.125ZM23.3308 20.0437C23.1934 20.3813 22.9058 20.8501 22.6182 21.2063C22.5933 20.9563 22.5557 20.4688 22.5557 20.1938C22.812 20.1187 23.062 20.0688 23.3308 20.0437ZM21.3682 20.8C21.3933 21.25 21.437 21.7 21.5059 22.1313C21.2683 22.2625 21.0745 22.325 20.9307 22.325C20.7683 22.325 20.6621 22.1812 20.6621 21.9688C20.6621 21.4563 20.9807 21.1438 21.3682 20.8Z" fill="#A40731"/>
</g>
<defs>
<clipPath id="clip0_501_1229">
<rect width="32" height="32" fill="white" transform="translate(0.5)"/>
</clipPath>
</defs>
</svg>
