<svg width="32" height="27" viewBox="0 0 32 27" fill="none" xmlns="http://www.w3.org/2000/svg">
<path d="M10.25 11.75C11.75 11.75 13.0417 11.229 14.125 10.187C15.2084 9.14505 15.75 7.87405 15.75 6.37405C15.75 4.87405 15.2084 3.60305 14.125 2.56105C13.0417 1.51905 11.75 0.998047 10.25 0.998047C8.75005 0.998047 7.45838 1.51905 6.37505 2.56105C5.29171 3.60305 4.75005 4.87405 4.75005 6.37405C4.75005 7.87405 5.29171 9.14505 6.37505 10.187C7.45838 11.229 8.75005 11.75 10.25 11.75ZM10.25 2.75005C11.3334 2.75005 12.2294 3.10438 12.938 3.81305C13.6467 4.52171 14.001 5.37605 14.001 6.37605C14.001 7.37605 13.6467 8.23038 12.938 8.93905C12.2294 9.64771 11.3334 10.002 10.25 10.002C9.16671 10.002 8.27071 9.64771 7.56205 8.93905C6.85338 8.23038 6.49905 7.37605 6.49905 6.37605C6.49905 5.37605 6.85338 4.52171 7.56205 3.81305C8.27071 3.10438 9.16671 2.75005 10.25 2.75005ZM23.25 14.25C24.5834 14.25 25.7084 13.7917 26.625 12.875C27.5417 11.9584 28 10.875 28 9.62505C28 8.37505 27.5417 7.29171 26.625 6.37505C25.7084 5.45838 24.5834 5.00005 23.25 5.00005C21.9167 5.00005 20.7917 5.45838 19.875 6.37505C18.9584 7.29171 18.5 8.37505 18.5 9.62505C18.5 10.875 18.9584 11.9584 19.875 12.875C20.7917 13.7917 21.9167 14.25 23.25 14.25ZM23.25 6.75005C24.0834 6.75005 24.7917 7.02105 25.375 7.56305C25.9584 8.10505 26.25 8.77171 26.25 9.56305C26.25 10.3544 25.9584 11.042 25.375 11.626C24.7917 12.21 24.0834 12.5017 23.25 12.501C22.4167 12.5004 21.7084 12.2087 21.125 11.626C20.5417 11.0434 20.25 10.3557 20.25 9.56305C20.25 8.77038 20.5417 8.10371 21.125 7.56305C21.7084 7.02238 22.4167 6.75138 23.25 6.75005ZM23.5 15.375H23C21.5 15.375 20.0834 15.7917 18.75 16.625C18.0834 15.7084 17.229 14.9584 16.187 14.375C15.145 13.7917 13.999 13.5 12.749 13.5H7.74905C6.41571 13.5 5.20738 13.8127 4.12405 14.438C3.04071 15.0634 2.18638 15.9177 1.56105 17.001C0.935714 18.0844 0.623047 19.2927 0.623047 20.626V24.501C0.623047 24.9177 0.769047 25.272 1.06105 25.564C1.35305 25.856 1.70738 26.002 2.12405 26.002H29.999C30.4157 26.002 30.77 25.856 31.062 25.564C31.354 25.272 31.5 24.9177 31.5 24.501V23.251C31.4167 21.8344 31.0207 20.5217 30.312 19.313C29.6034 18.1044 28.645 17.146 27.437 16.438C26.229 15.73 24.9164 15.3757 23.499 15.375H23.5ZM16.625 24.25H2.37505V20.625C2.37505 19.125 2.89605 17.854 3.93805 16.812C4.98005 15.77 6.25105 15.249 7.75105 15.249H12.751C14.251 15.249 15.522 15.77 16.564 16.812C17.606 17.854 18.127 19.125 18.127 20.625V24.25H16.627H16.625ZM29.625 24.25H19.875V20.625C19.875 19.875 19.75 19.0834 19.5 18.25C20.5834 17.5 21.75 17.125 23 17.125H23.5C25.1667 17.125 26.6044 17.7294 27.813 18.938C29.0217 20.1467 29.626 21.5844 29.626 23.251V24.251L29.625 24.25Z" fill="#A40731"/>
</svg>
