<svg width="33" height="32" viewBox="0 0 33 32" fill="none" xmlns="http://www.w3.org/2000/svg">
<g clip-path="url(#clip0_501_1245)">
<path d="M16.5 0C7.82642 0 0.5 6.65088 0.5 15.0625C0.5 19.5703 2.67505 23.6929 6.1875 26.5V31.0625C6.1875 31.3892 6.35742 31.6921 6.63623 31.8625C6.91187 32.0308 7.25879 32.0474 7.55273 31.8967L12.2061 29.5117C13.5981 29.8772 15.0408 30.0625 16.5 30.0625C25.3225 30.0625 32.5 23.3335 32.5 15.0625C32.5 6.64673 25.1689 0 16.5 0ZM16.5 28.1875C15.0891 28.1875 13.6965 27.9932 12.3613 27.6101C12.1323 27.5442 11.887 27.5681 11.6753 27.6768L8.0625 29.5286V26.0408C8.0625 25.7458 7.92383 25.4683 7.68823 25.2913C4.31152 22.7537 2.375 19.0254 2.375 15.0625C2.375 7.79077 8.71143 1.875 16.5 1.875C24.2886 1.875 30.625 7.79077 30.625 15.0625C30.625 22.2996 24.2886 28.1875 16.5 28.1875Z" fill="#A40731"/>
<path d="M25.4558 9.53662L18.56 12.9844L15.2878 9.71215C15.0993 9.52368 14.8396 9.42407 14.5732 9.43896C14.3069 9.45385 14.0595 9.58129 13.893 9.78955L6.39304 19.1646C6.11789 19.5083 6.11911 19.9971 6.39597 20.3396C6.67282 20.6819 7.15061 20.7854 7.54441 20.5886L14.4399 17.1409L17.7121 20.4131C17.9006 20.6016 18.1601 20.7009 18.427 20.686C18.6931 20.6714 18.9404 20.544 19.1072 20.3357L26.6072 10.9607C26.8821 10.6169 26.8808 10.1279 26.604 9.78564C26.3274 9.44335 25.8496 9.33959 25.4558 9.53662ZM18.2973 18.3464L15.2878 15.3372C15.0024 15.0518 14.5666 14.981 14.2058 15.1614L10.5234 17.0024L14.7026 11.7786L17.7121 14.7878C17.9973 15.0732 18.4333 15.144 18.7942 14.9636L22.4765 13.1226L18.2973 18.3464Z" fill="#A40731"/>
</g>
<defs>
<clipPath id="clip0_501_1245">
<rect width="32" height="32" fill="white" transform="translate(0.5)"/>
</clipPath>
</defs>
</svg>
