<svg width="31" height="30" viewBox="0 0 31 30" fill="none" xmlns="http://www.w3.org/2000/svg">
<path d="M23.9994 29.6248C21.916 29.6248 19.4994 28.9164 16.7494 27.4998C13.9994 26.0831 11.291 24.0831 8.62436 21.4998C6.2077 19.2498 4.27003 16.9371 2.81136 14.5618C1.3527 12.1864 0.477697 9.99876 0.186363 7.99876C-0.10497 5.99876 0.29103 4.45709 1.37436 3.37376C1.4577 3.20709 1.62436 3.08209 1.87436 2.99876L5.99936 0.623758C6.49936 0.373758 7.02036 0.311091 7.56236 0.435758C8.10436 0.560424 8.50036 0.831424 8.75036 1.24876L11.8754 5.62376C12.2087 6.12376 12.313 6.62376 12.1884 7.12376C12.0637 7.62376 11.7927 8.04042 11.3754 8.37376L9.50036 9.62376C9.41703 9.62376 9.37536 9.66542 9.37536 9.74876L9.50036 9.87376C10.5837 11.4571 11.8754 13.0404 13.3754 14.6238C15.6254 17.0404 18.0837 19.0404 20.7504 20.6238C20.8337 20.7071 20.917 20.7281 21.0004 20.6868C21.0837 20.6454 21.167 20.6244 21.2504 20.6238L22.5004 18.8738C22.8337 18.3738 23.2714 18.0821 23.8134 17.9988C24.3554 17.9154 24.8764 18.0404 25.3764 18.3738L30.0014 21.2488C30.418 21.5821 30.689 21.9988 30.8144 22.4988C30.9397 22.9988 30.877 23.4988 30.6264 23.9988L28.1264 27.9988C28.043 28.1654 27.918 28.3321 27.7514 28.4988C26.8347 29.2488 25.5847 29.6238 24.0014 29.6238L23.9994 29.6248ZM7.12436 2.12476H6.87436L2.62436 4.49976C1.87436 5.33309 1.66603 6.56242 1.99936 8.18776C2.3327 9.81309 3.12436 11.6674 4.37436 13.7508C5.79103 16.0008 7.62436 18.1884 9.87436 20.3138C12.1244 22.4391 14.416 24.1684 16.7494 25.5018C18.916 26.7518 20.8954 27.5228 22.6874 27.8148C24.4794 28.1068 25.7504 27.9191 26.5004 27.2518L29.1254 23.1268C29.2087 22.9601 29.167 22.8351 29.0004 22.7518L24.5004 19.8768H24.1874C24.1874 19.8768 24.1247 19.9184 23.9994 20.0018L22.6244 21.7518C22.291 22.1684 21.8534 22.4184 21.3114 22.5018C20.7694 22.5851 20.29 22.5018 19.8734 22.2518C17.04 20.5851 14.415 18.4601 11.9984 15.8768C10.415 14.2101 9.0817 12.5434 7.99836 10.8768C7.66503 10.4601 7.5607 9.96009 7.68536 9.37676C7.81003 8.79342 8.08103 8.37676 8.49836 8.12676L10.3734 6.87676C10.4567 6.87676 10.4984 6.83509 10.4984 6.75176V6.50176L7.37336 2.25176C7.29003 2.16842 7.2067 2.12676 7.12336 2.12676L7.12436 2.12476Z" fill="#A40731"/>
</svg>
