<svg width="24" height="31" viewBox="0 0 24 31" fill="none" xmlns="http://www.w3.org/2000/svg">
<path d="M14.125 19.25C14.7083 18.6667 15 17.9167 15 17C15 16.0833 14.7083 15.3333 14.125 14.75C13.5417 14.1667 12.8123 13.875 11.937 13.875C11.0617 13.875 10.3323 14.1667 9.749 14.75C9.16567 15.3333 8.874 16.0833 8.874 17C8.874 17.9167 9.16567 18.6667 9.749 19.25C9.08233 19.5833 8.54067 20 8.124 20.5C7.124 21.75 6.624 23.2083 6.624 24.875C6.624 25.2083 6.83233 25.4793 7.249 25.688C7.66567 25.8967 8.20733 26.126 8.874 26.376C9.95733 26.7093 10.999 26.876 11.999 26.876C13.6657 26.876 15.2907 26.4593 16.874 25.626C17.124 25.4593 17.249 25.1677 17.249 24.751C17.249 23.001 16.749 21.5843 15.749 20.501C15.1657 19.9177 14.624 19.501 14.124 19.251L14.125 19.25ZM12 15.625C12.4167 15.625 12.75 15.75 13 16C13.25 16.25 13.375 16.5627 13.375 16.938C13.375 17.3133 13.25 17.626 13 17.876C12.75 18.126 12.4373 18.251 12.062 18.251C11.6867 18.251 11.3533 18.126 11.062 17.876C10.7707 17.626 10.6247 17.3133 10.624 16.938C10.6233 16.5627 10.7483 16.25 10.999 16C11.2497 15.75 11.583 15.625 11.999 15.625H12ZM12 25.125C11 25.125 9.83333 24.875 8.5 24.375C8.58333 23.2917 8.93767 22.375 9.563 21.625C10.1883 20.875 10.98 20.5 11.938 20.5C12.896 20.5 13.6877 20.875 14.313 21.625C14.9383 22.375 15.3343 23.2917 15.501 24.375C15.0843 24.5417 14.5633 24.7083 13.938 24.875C13.3127 25.0417 12.6667 25.125 12 25.125ZM22.625 9.625L13.25 0.75C12.8333 0.333333 12.25 0.125 11.5 0.125H3.5C2.75 0.125 2.08333 0.416667 1.5 1C0.916667 1.58333 0.625 2.25 0.625 3V27.875C0.625 28.7083 0.916667 29.396 1.5 29.938C2.08333 30.48 2.75 30.751 3.5 30.751H20.5C21.25 30.751 21.9167 30.4593 22.5 29.876C23.0833 29.2927 23.375 28.626 23.375 27.876V11.376C23.375 10.626 23.125 10.0427 22.625 9.626V9.625ZM12.875 2.75L20.5 9.875H13.625C13.4583 9.875 13.2917 9.81233 13.125 9.687C12.9583 9.56167 12.875 9.41567 12.875 9.249V2.749V2.75ZM20.5 29.125H3.5C3.25 29.125 3 29.0207 2.75 28.812C2.5 28.6033 2.375 28.3323 2.375 27.999V3.124C2.375 2.79067 2.5 2.499 2.75 2.249C3 1.999 3.25 1.874 3.5 1.874H11.125V9.249C11.125 9.91567 11.375 10.4783 11.875 10.937C12.375 11.3957 12.9583 11.625 13.625 11.625H21.75V27.875C21.6667 28.2083 21.5207 28.5 21.312 28.75C21.1033 29 20.8323 29.125 20.499 29.125H20.5Z" fill="#A40731"/>
</svg>
